<svg width="1440" height="760" viewBox="0 0 1440 760" fill="none" xmlns="http://www.w3.org/2000/svg">
  <g stroke="white" stroke-opacity="0.25" stroke-width="1.2">
    <path d="M100 90L150 60L200 90V150L150 180L100 150V90Z"/>
    <path d="M200 90L250 60L300 90V150L250 180L200 150V90Z"/>
    <path d="M300 90L350 60L400 90V150L350 180L300 150V90Z"/>
    <path d="M400 90L450 60L500 90V150L450 180L400 150V90Z"/>
    <path d="M500 90L550 60L600 90V150L550 180L500 150V90Z"/>
    <path d="M600 90L650 60L700 90V150L650 180L600 150V90Z"/>
    <path d="M700 90L750 60L800 90V150L750 180L700 150V90Z"/>
    <path d="M800 90L850 60L900 90V150L850 180L800 150V90Z"/>
    <path d="M900 90L950 60L1000 90V150L950 180L900 150V90Z"/>
    <path d="M1000 90L1050 60L1100 90V150L1050 180L1000 150V90Z"/>
    <path d="M150 180L200 150L250 180V240L200 270L150 240V180Z"/>
    <path d="M250 180L300 150L350 180V240L300 270L250 240V180Z"/>
    <path d="M350 180L400 150L450 180V240L400 270L350 240V180Z"/>
    <path d="M450 180L500 150L550 180V240L500 270L450 240V180Z"/>
    <path d="M550 180L600 150L650 180V240L600 270L550 240V180Z"/>
    <path d="M650 180L700 150L750 180V240L700 270L650 240V180Z"/>
    <path d="M750 180L800 150L850 180V240L800 270L750 240V180Z"/>
    <path d="M850 180L900 150L950 180V240L900 270L850 240V180Z"/>
    <path d="M950 180L1000 150L1050 180V240L1000 270L950 240V180Z"/>
  </g>
</svg>
